<svg width="40" height="40" viewBox="0 0 40 40" fill="none" xmlns="http://www.w3.org/2000/svg">
<path d="M19.3447 33.7659C19.4204 33.7664 19.4942 33.7447 19.5571 33.7032C19.528 33.7753 19.4791 33.8377 19.4155 33.8837C19.3519 33.9298 19.2764 33.9575 19.1976 33.9635L19.2206 34.1001C19.3578 34.0898 19.4856 34.0291 19.5791 33.9302C19.6727 33.8313 19.7243 33.7014 19.7244 33.5665C19.7244 33.3247 19.5892 33.1974 19.3953 33.1974C19.3541 33.1948 19.3126 33.2007 19.2739 33.2147C19.2352 33.2287 19.1996 33.2503 19.17 33.2785C19.1404 33.3067 19.1174 33.3406 19.102 33.3781C19.0865 33.4156 19.0794 33.456 19.0808 33.4964C19.0765 33.5318 19.0803 33.5678 19.0918 33.6016C19.1034 33.6355 19.1227 33.6664 19.1479 33.6922C19.1731 33.718 19.204 33.7378 19.238 33.7506C19.272 33.7633 19.3084 33.7686 19.3447 33.7659ZM19.3934 33.3265C19.4989 33.3265 19.5699 33.4152 19.5699 33.5739C19.5201 33.6141 19.4579 33.6356 19.3934 33.6347C19.3725 33.6375 19.3509 33.6355 19.3309 33.6289C19.3109 33.6222 19.2934 33.6113 19.2785 33.5967C19.2636 33.582 19.2522 33.564 19.2454 33.5444C19.2386 33.5248 19.2362 33.5041 19.239 33.4835C19.2376 33.4631 19.2409 33.4424 19.2481 33.4232C19.2554 33.4039 19.2667 33.3865 19.2812 33.3718C19.2958 33.357 19.3134 33.3453 19.3327 33.3375C19.3521 33.3298 19.3725 33.3259 19.3934 33.3265Z" fill="#90949C"/>
<path d="M18.7005 33.3765V34.0834H18.8669V33.2158H18.7198L18.501 33.3136L18.5203 33.443L18.7005 33.3765Z" fill="#90949C"/>
<path d="M20.2599 34.0983C20.4689 34.0983 20.612 33.9377 20.612 33.6479C20.612 33.358 20.4689 33.1992 20.2599 33.1992C20.0508 33.1992 19.9077 33.3617 19.9077 33.6479C19.9077 33.934 20.0471 34.0983 20.2599 34.0983ZM20.2599 33.3304C20.3785 33.3304 20.4483 33.443 20.4483 33.6479C20.4483 33.8528 20.3841 33.9672 20.2599 33.9672C20.1356 33.9672 20.0714 33.8546 20.0714 33.6479C20.0714 33.4411 20.1393 33.3304 20.2599 33.3304Z" fill="#90949C"/>
<path d="M21.3914 33.801C21.3931 33.7642 21.3864 33.7274 21.3721 33.6933C21.3578 33.6593 21.3363 33.6288 21.3087 33.6038C21.2811 33.5789 21.2479 33.5601 21.2121 33.5489C21.1764 33.5376 21.1391 33.5341 21.1018 33.5387C21.0567 33.5381 21.0111 33.5438 20.9676 33.5554L20.985 33.3542H21.3611L21.339 33.2158H20.8453L20.8131 33.6717L20.9262 33.6958C20.9697 33.6778 21.017 33.6689 21.0641 33.6699C21.1677 33.6699 21.2259 33.7235 21.2259 33.8085C21.2259 33.8934 21.1485 33.9597 21.0375 33.9597C20.9513 33.9594 20.8669 33.9365 20.7929 33.8932L20.7681 34.0354C20.8506 34.0776 20.9426 34.0992 21.0356 34.0982C21.0796 34.1062 21.1248 34.1044 21.168 34.0931C21.2113 34.0817 21.2516 34.0611 21.2857 34.0327C21.3198 34.0042 21.3465 33.9686 21.3648 33.9286C21.3831 33.8885 21.3925 33.8449 21.3914 33.801Z" fill="#90949C"/>
<path d="M26.9107 21.378C26.8824 21.3872 26.6822 21.4352 26.5071 21.474L26.3195 21.3706L26.1457 21.2746L26.1172 21.2597L25.7274 21.0438L25.6134 20.981L25.583 20.9902H25.5601L25.5711 20.9994L25.6134 21.0346L26.3793 21.6881C26.7125 22.0572 26.8878 22.4265 26.5677 22.6277L26.5392 22.6424L26.4997 22.6626C26.6551 22.6871 26.8149 22.6633 26.9557 22.5944C27.0958 22.5364 27.22 22.4473 27.3189 22.3341C27.5072 22.0923 27.181 21.2837 27.1791 21.2579C27.0987 21.3154 27.0078 21.3564 26.9107 21.378Z" fill="#90949C"/>
<path d="M25.8203 21.4036L25.8902 21.6086L25.9031 21.6474L25.9518 21.7968L26.1513 21.9574L26.428 22.1771L26.4832 22.2213C26.4832 22.2213 26.3587 21.9852 26.3361 21.9464C26.2087 21.7292 26.0323 21.5434 25.8203 21.4036Z" fill="#90949C"/>
<path d="M23.6016 20.2407L23.6678 20.3054C23.6678 20.3054 23.6581 20.2703 23.6016 20.2407Z" fill="#90949C"/>
<path d="M18.5289 23.3123C18.5792 22.7257 18.7726 22.1596 19.0934 21.662C19.3703 21.742 19.6607 21.7669 19.9475 21.7352C20.2344 21.7035 20.5122 21.6159 20.764 21.4774C20.6864 21.8864 20.7044 22.3074 20.8173 22.7084C20.9302 23.1095 21.1353 23.4802 21.4158 23.7923C21.322 23.1051 21.4097 22.4059 21.6714 21.7618C21.8061 21.4215 22.0344 21.1243 22.3306 20.9033C22.5202 20.7626 22.7288 20.6483 22.9503 20.5637L22.5587 20.4087C22.2789 20.322 22.0191 20.1815 21.7955 19.9952C21.6947 19.9113 21.6036 19.8164 21.5243 19.7126C21.9443 19.9325 22.406 20.0663 22.8805 20.1058C23.1323 20.1001 23.3814 20.1526 23.6086 20.259C23.3168 19.9803 22.7048 19.4192 22.7048 19.4192C23.3309 19.5547 23.9308 19.7897 24.4793 20.1151L23.7392 19.2734L24.6448 19.72L24.9988 20.3458C25.3809 20.6866 25.8096 20.9732 26.2731 21.1969C26.1364 21.0691 26.0205 20.9222 25.9274 20.7611C26.052 20.8337 26.1974 20.863 26.3411 20.8442C26.2238 20.7937 26.1307 20.7015 26.08 20.586C26.0293 20.4706 26.0248 20.3404 26.0681 20.2221C26.0681 20.2221 25.9497 19.9749 25.8989 19.8789C25.8989 19.8789 25.7483 19.5096 25.8594 19.3545C25.9912 19.613 26.3882 20.3513 26.4974 20.6171C26.5276 20.6909 26.5575 20.7649 26.5839 20.8406L26.6068 20.9366C26.6332 20.9256 26.7289 20.87 26.7779 20.6633V20.6523C26.8076 20.497 26.8132 20.3383 26.7935 20.1815C26.7935 20.1815 26.8211 20.2388 26.8588 20.3237C26.8994 20.4173 26.9355 20.5128 26.9663 20.6099C27.0017 20.7084 27.0203 20.8119 27.0224 20.9163C27.0263 20.9491 27.0235 20.9822 27.0141 21.0139C27.0048 21.0456 26.9894 21.0753 26.9682 21.1009C26.9817 21.0952 26.9944 21.0876 27.0059 21.0786C27.0936 21.0002 27.1668 20.9072 27.221 20.8037C27.28 20.6318 27.3091 20.4514 27.3074 20.2701C27.2943 20.2202 27.2748 20.1706 27.2559 20.1189C26.9216 19.3795 26.4886 18.6873 25.9669 18.0607L25.9816 18.2691L26.0083 18.7196C25.4444 18.1169 24.7936 17.5978 24.0775 17.1783C24.0512 17.4847 24.0249 17.9481 23.9966 18.2527C23.842 17.7494 23.5715 17.2876 23.2059 16.9031C23.2323 17.212 23.2592 17.5197 23.2868 17.8261C22.6862 16.3124 19.4642 13.1708 18.6282 11.1956C18.5905 11.1089 18.5023 11.1105 18.3818 11.0311C12.0945 6.8039 13.7668 1.95103 13.8628 1.69075C11.4451 7.7473 15.7007 10.5881 15.7007 10.5881C14.739 10.0596 13.8898 9.35456 13.1999 8.51142C12.8091 7.96781 12.4528 7.40138 12.1325 6.8151C11.7592 6.1381 11.4443 5.43164 11.191 4.70326C10.7308 3.42311 10.5687 2.05831 10.7166 0.70874C10.1643 2.59462 10.2071 4.60003 10.8389 6.46177C11.4707 8.32351 12.6617 9.9545 14.2563 11.1402V11.1309C14.8453 11.6134 15.4753 12.0456 16.1393 12.423C16.5686 12.6667 17.0322 12.8476 17.4577 13.1042C19.361 14.2405 20.87 15.9131 21.7882 17.9036L21.7257 17.8556C19.7156 15.8583 17.1217 14.5236 14.3032 14.0364C15.9549 14.7898 17.531 15.6934 19.0106 16.7353C18.5105 16.7947 18.0426 17.0079 17.6738 17.3443C18.2425 17.2339 18.829 17.2446 19.3931 17.3757C19.7428 17.4663 20.0828 17.5901 20.4081 17.745C19.3675 17.5969 18.3074 17.8231 17.4237 18.3818C16.8653 18.6834 16.254 18.8794 15.6217 18.9595C16.4632 19.1683 17.3501 19.1186 18.162 18.8173C19.074 18.5484 20.0526 18.6008 20.9295 18.9652C20.841 18.9559 20.7541 18.9486 20.6656 18.9449C19.5233 18.9368 18.4103 19.2936 17.4936 19.9618C17.4541 19.9895 17.4127 20.0172 17.375 20.0468L19.7489 20.2426L18.116 21.3778C18.104 21.5382 18.104 21.6992 18.116 21.8596C18.1351 22.2919 18.2383 22.7166 18.4194 23.1111C18.4525 23.1799 18.4892 23.247 18.5289 23.3123Z" fill="#90949C"/>
<path d="M31.3651 36.4295L31.3366 36.4515C31.3162 36.4691 31.3007 36.4907 31.2897 36.5149C31.2786 36.5391 31.2729 36.5654 31.2731 36.5919C31.2666 36.6397 31.2796 36.6881 31.309 36.7267C31.3692 36.7747 31.5739 36.7267 31.7246 36.699C31.7942 36.6842 31.8646 36.6695 31.9305 36.6584C32.233 36.6088 32.5427 36.6252 32.838 36.7064L32.86 36.3981C32.5654 36.346 32.2676 36.3176 31.9682 36.3132C31.7602 36.2967 31.5511 36.3369 31.3651 36.4295Z" fill="#90949C"/>
<path d="M7.21191 36.2507L7.22203 36.5589C7.36641 36.5219 7.51505 36.5043 7.66427 36.5071C7.82049 36.5071 7.97644 36.5226 8.12949 36.5533C8.19539 36.5662 8.26489 36.5846 8.33268 36.6031C8.48143 36.6419 8.6852 36.6972 8.74734 36.6511C8.77724 36.6125 8.7919 36.5647 8.78871 36.5163C8.7918 36.487 8.78678 36.4574 8.77492 36.4303C8.76306 36.4031 8.74449 36.3794 8.72067 36.3613C8.24071 36.1766 7.71459 36.1381 7.21191 36.2507Z" fill="#90949C"/>
<path d="M31.8306 36.0107C32.3755 36.0045 32.9189 36.0665 33.4478 36.1953C33.7232 36.2827 34.0207 36.2788 34.2937 36.1842C34.3395 36.1501 34.3698 36.0997 34.3783 36.0438C33.7662 35.6048 33.0489 35.3283 32.2958 35.241C32.1948 35.5255 32.0365 35.7872 31.8306 36.0107Z" fill="#90949C"/>
<path d="M5.73486 35.9091C5.75001 35.9351 5.76933 35.9582 5.79279 35.9774C6.05971 36.0857 6.35634 36.1041 6.63497 36.0292C7.16441 35.9235 7.70522 35.8831 8.24487 35.9091C8.07144 35.7231 7.91672 35.5209 7.78332 35.3054C7.06856 35.3823 6.37441 35.5869 5.73486 35.9091Z" fill="#90949C"/>
<path d="M36.1195 33.3544C35.6548 33.0352 35.1484 32.7794 34.6135 32.5939V27.7778L34.9243 27.6633V26.9731L34.6135 26.8364V26.3566L34.9243 26.2422V25.4188L33.9037 24.4699V24.2448C33.8873 24.1823 33.8478 24.1277 33.7934 24.0913C33.739 24.055 33.673 24.0393 33.6077 24.0472H33.3052C33.3052 24.0472 33.0698 24.0805 33.0698 24.2448V24.4553L32.0226 25.4224V26.2458L32.3334 26.3528V26.8328L32.0171 26.9675V27.3017C30.3426 29.1514 28.3157 30.6627 26.0501 31.7505V30.6558H23.5603C23.4936 30.0966 23.2876 29.562 22.9599 29.0996C22.9623 29.0745 22.9623 29.0491 22.9599 29.0239C23.254 28.8253 23.4612 28.5255 23.5401 28.1841C23.5862 28.0203 23.5958 27.8487 23.5695 27.6807C23.5432 27.5127 23.4815 27.352 23.3874 27.2093C23.3769 27.193 23.3642 27.1782 23.3497 27.1651C23.3083 27.1282 23.2028 27.0468 23.0804 26.9508C22.9128 26.8216 22.6321 26.6057 22.5756 26.543C22.4204 26.3553 22.3062 26.1387 22.2391 25.9062C22.2727 25.9044 22.3051 25.8954 22.3347 25.8798C22.3643 25.8642 22.39 25.8425 22.4101 25.816C22.4302 25.7896 22.4437 25.7591 22.4506 25.7268C22.4574 25.6945 22.4574 25.6613 22.4496 25.6292L22.4193 25.4981C22.3722 25.2987 22.3173 25.0736 22.274 24.8244V24.8133H22.3062C22.3469 24.8132 22.3869 24.8027 22.4221 24.7827C22.4573 24.7626 22.4864 24.7337 22.5066 24.6991C22.5269 24.6644 22.5381 24.6252 22.5379 24.5853C22.5377 24.5454 22.5262 24.5064 22.5057 24.4719L22.2501 23.7943L22.2989 23.848C22.3629 23.9107 22.5156 24.0233 22.6023 23.992C22.6889 23.9606 22.6904 23.8072 22.6979 23.7094C22.7378 23.4716 22.8266 23.2444 22.959 23.0413C23.0914 22.8382 23.265 22.6634 23.4684 22.528C23.4812 22.5666 23.4968 22.6043 23.5152 22.6406C23.5548 22.7163 23.5583 22.8824 23.6449 22.8824C23.7315 22.8824 23.7982 22.7606 23.9262 22.6332C24.0465 22.4799 24.204 22.3593 24.385 22.2826L25.184 22.5983C25.2424 22.7919 25.3536 22.966 25.5058 23.1021C25.686 23.2367 25.8743 23.3599 26.0703 23.4712L26.1586 23.5266C26.1323 23.5393 26.1053 23.5505 26.0777 23.56C25.9873 23.5932 25.7237 23.6781 25.7237 23.7723C25.7237 23.8664 25.9835 23.9568 26.0758 23.9863C26.2566 24.052 26.4484 24.0857 26.6413 24.0859C26.816 24.0942 26.99 24.0656 27.1524 24.0019C27.3149 23.9382 27.462 23.8409 27.5827 23.7168C27.6672 23.6176 27.7276 23.5011 27.7602 23.3759C27.7928 23.2507 27.7969 23.12 27.7712 22.9933C27.7373 22.7884 27.6542 22.2788 27.6259 22.1145L27.842 21.4204C27.8495 21.399 27.854 21.3766 27.854 21.354C27.838 20.9748 27.7404 20.6033 27.5689 20.2631L27.5597 20.2372C27.5515 20.2109 27.5381 20.1866 27.5202 20.1653L27.4899 20.1081C27.436 19.9921 27.3738 19.8803 27.3023 19.7739C26.8994 19.1502 26.4215 18.5758 25.88 18.0627C25.8103 18 25.6751 17.8892 25.5904 17.928C25.5056 17.9667 25.4845 18.1496 25.4901 18.2419V18.2917C25.3966 18.1437 25.2908 18.0035 25.1739 17.8725C25.0817 17.7464 25.012 17.606 24.967 17.4572C25.4287 15.51 26.3975 13.7134 27.7786 12.2425C27.8165 12.2052 27.8397 12.1563 27.8457 12.104C28.3014 7.6423 33.4951 5.67828 33.5516 5.65982C33.6097 5.64248 33.6666 5.62222 33.7226 5.59898C33.9109 5.46792 33.9318 5.36639 33.9111 5.32024C33.8508 5.13564 33.5345 5.00071 32.2635 5.00071C31.7664 5.00071 31.3047 5.01919 31.299 5.01919C31.2792 5.021 31.2601 5.02468 31.2411 5.03023C30.4762 5.0809 29.7252 5.25826 29.0207 5.55459C29.8908 4.63145 30.9731 3.92453 32.1771 3.49255C32.2467 3.46657 32.3108 3.42792 32.3655 3.3783C32.407 3.31369 32.4763 3.25634 32.4179 3.15297C32.32 2.96837 31.9339 2.92966 31.676 2.92966C31.2859 2.93956 30.8967 2.97645 30.512 3.0403C30.2804 3.06534 30.0509 3.10242 29.8233 3.15116H29.7948C28.8188 3.3638 27.9041 3.78828 27.1175 4.39344C27.0102 4.4765 26.9048 4.56509 26.8031 4.6537L27.4264 3.61445C27.7482 3.09527 28.1102 2.60165 28.5104 2.13783C28.5367 2.1086 28.555 2.07278 28.5619 2.0344C28.577 1.96056 28.6651 1.84965 28.6162 1.78135C28.5876 1.74887 28.5523 1.72311 28.5123 1.70586C28.4722 1.68862 28.4282 1.6804 28.3845 1.68175C28.2734 1.68175 27.9012 1.71863 26.4758 2.78927C25.1372 3.70602 24.0031 4.88054 23.1429 6.24118C22.6743 7.01903 22.2951 7.84571 22.0129 8.70568C22.0016 8.62815 21.9901 8.55062 21.9826 8.47493C21.9445 8.13774 21.9234 7.7988 21.9201 7.45957C21.9201 7.00362 21.9352 6.59389 21.9541 6.33177C21.9541 6.22101 21.941 5.9626 21.8318 5.93676C21.7226 5.91091 21.557 6.12136 21.5118 6.22473C20.9838 7.37508 20.6729 8.6096 20.5933 9.86863L20.3387 12.1538C20.3085 12.3125 20.1879 13.0767 20.1879 13.0767C20.0043 12.7778 19.8446 12.4656 19.7098 12.1427L19.6914 12.1078L19.4707 11.7644L19.4514 11.7367C19.1517 11.4039 18.7932 11.1269 18.3932 10.9189C17.5396 10.4307 16.7835 9.79605 16.159 9.04525C15.5026 8.21686 15.0224 7.26785 14.7468 6.25425C14.3367 4.37276 14.3703 2.42414 14.8461 0.557555C14.9011 0.420177 14.9067 0.268521 14.8626 0.12739C14.8391 0.0971356 14.8098 0.0725412 14.7753 0.0552831C14.7407 0.0380251 14.7019 0.0286306 14.6631 0.0277923C14.5144 0.0277923 14.3788 0.155083 13.4467 1.60784V1.61911C12.8309 2.58701 12.4086 3.66061 12.2009 4.78304C12.1557 5.02486 12.1215 5.26662 12.097 5.50659C11.8797 4.97699 11.7006 4.43299 11.5619 3.87855C11.2659 2.73356 11.17 1.54765 11.2778 0.371203C11.2778 0.302903 11.3002 0.120178 11.2493 0.0721833C11.2244 0.0485468 11.1952 0.0300114 11.1629 0.0176522C11.1306 0.00529295 11.0965 -0.00075877 11.0618 7.60261e-05C10.8565 7.60261e-05 10.5402 0.260351 9.88307 1.98077C9.27272 3.49813 9.05514 5.14023 9.25144 6.75991C8.59207 5.74878 8.1446 4.61952 7.93391 3.43734C7.86236 3.15306 7.79225 2.87419 7.71693 2.60653C7.68116 2.47362 7.58193 2.1488 7.45766 2.20971L7.43283 2.22458L7.41996 2.23563L7.40249 2.24847C7.37801 2.27247 7.28792 2.55487 7.27285 2.58625C7.22403 2.69207 7.19659 2.80617 7.19195 2.92222V2.94431C7.19195 2.99599 7.19195 3.04963 7.19195 3.10317C7.19195 3.1567 7.19195 3.22126 7.19195 3.28772C7.02623 5.14834 7.37639 7.01831 8.20514 8.70004L8.23089 8.76088L8.27869 8.86611C8.40674 9.12824 8.54946 9.36826 8.68691 9.60454C8.73211 9.68207 8.77692 9.75599 8.82023 9.83167C8.94518 10.0499 9.09545 10.2536 9.26707 10.439C8.60991 10.3079 7.63598 10.1177 7.16712 10.0475C7.11497 10.0406 7.06265 10.0512 7.01726 10.0773C6.97186 10.1034 6.93636 10.1435 6.91704 10.1915C6.89817 10.2401 6.89691 10.2936 6.91336 10.343C6.92981 10.3923 6.96269 10.4346 7.00714 10.4628C7.65855 10.9456 8.2787 11.4685 8.86252 12.0282L10.1911 13.241L10.3143 13.3519C10.7474 13.7543 11.1987 14.166 11.6318 14.55L10.7207 14.4632C10.6711 14.4577 10.621 14.4682 10.5782 14.4932C10.5353 14.5182 10.5021 14.5562 10.4835 14.6016C10.4643 14.6466 10.4602 14.6965 10.4724 14.7438C10.4846 14.791 10.5128 14.833 10.5515 14.8636L12.6753 16.5489L13.603 17.2745L13.6223 17.293L15.2175 18.5519C15.2571 18.5818 15.3046 18.5991 15.3545 18.6017L15.7627 18.611C14.9422 18.9588 14.0167 18.9806 13.1801 18.6718C12.4643 18.4336 11.7955 18.0758 11.2043 17.6141C11.1233 17.5495 10.913 17.4295 10.8282 17.4904C10.7435 17.5513 10.8071 17.7803 10.8466 17.8782C11.0543 18.3127 11.3425 18.7056 11.6962 19.0373C10.5722 18.8862 9.4786 18.5649 8.45522 18.0848C8.35919 18.0442 8.18834 17.9336 8.12056 18.0111C8.05277 18.0886 8.10916 18.3305 8.16377 18.4154C8.55253 19.0376 9.00196 19.6211 9.50611 20.1579C9.89319 20.555 10.3234 20.9096 10.7887 21.2156C10.8414 21.247 10.9766 21.3319 11.6695 21.3319C11.9275 21.3319 12.2137 21.3189 12.4547 21.2967L12.5429 21.2875C11.9538 21.5122 11.32 21.6006 10.6903 21.5459C10.5736 21.5293 10.3142 21.546 10.2784 21.6512C10.2426 21.7564 10.466 21.9448 10.5846 21.9835C11.3509 22.2584 12.1456 22.4521 12.9539 22.5613C13.5215 22.7162 14.1016 22.8224 14.6879 22.8788C14.7368 22.8824 14.7862 22.8824 14.835 22.8788L15.0235 22.8973C15.3191 22.9231 15.5882 22.9489 15.8951 22.9489C16.1417 22.9488 16.3881 22.9297 16.6316 22.8917C16.6347 22.9219 16.643 22.9514 16.6573 22.9784L16.7897 23.2369C16.7535 23.2428 16.7189 23.257 16.6895 23.2786C16.6601 23.3001 16.6366 23.3282 16.6205 23.3606C16.6045 23.3929 16.5967 23.4287 16.5976 23.4647C16.5985 23.5006 16.6075 23.5357 16.6251 23.5672L16.9138 24.0952L16.9359 24.1303L16.9571 24.1544L16.9212 24.1747C16.8825 24.2009 16.8528 24.2382 16.8366 24.2815C16.8204 24.3248 16.8189 24.372 16.8311 24.4165C16.8693 24.6091 16.9463 24.7921 17.0582 24.9548C17.1701 25.1175 17.3142 25.2565 17.482 25.3634C17.548 25.3969 17.6071 25.4428 17.6549 25.4986C17.7027 25.5543 17.7382 25.6188 17.7606 25.6883C17.7977 25.8088 17.8423 25.9271 17.893 26.0427C18.0041 26.3122 18.1694 26.7202 18.0659 26.8808C17.9712 27.0403 17.8356 27.1727 17.6724 27.2647C17.5398 27.3481 17.4145 27.4413 17.2963 27.5435C17.1206 27.7025 17.0143 27.9221 17.0003 28.1562C16.9862 28.3902 17.0654 28.6207 17.2209 28.7988V28.8153C16.7588 29.3375 16.4669 29.9839 16.3843 30.6704H13.8743V31.7117C11.6659 30.5701 9.68172 29.0539 8.01298 27.2334V26.9824L7.70222 26.8512V26.8402V26.3677L8.01298 26.2606V25.4373L6.96577 24.4699V24.2594C6.96577 24.0951 6.7304 24.062 6.7304 24.062H6.42883C6.3635 24.0542 6.2975 24.0699 6.24311 24.1062C6.18871 24.1425 6.15012 24.1969 6.1337 24.2594V24.4848L5.11131 25.4337V26.2568L5.42207 26.3713V26.8512L5.11131 26.9878V27.6782L5.42207 27.7927V32.7287C4.95509 32.8739 4.49779 33.0477 4.05306 33.2492L3.57129 33.4799L3.94733 33.8493C4.69974 34.6922 5.12598 35.7678 5.15084 36.8877C5.15299 36.9992 5.18115 37.1087 5.23267 37.2081C5.2842 37.3075 5.35722 37.3944 5.44782 37.4618C5.81779 37.6648 6.25264 37.722 6.6642 37.6223L6.68535 38.4826L7.237 38.1705C7.47869 38.0852 7.74052 38.0717 7.99 38.1317L8.16377 38.1743C8.30145 38.2341 8.45095 38.2621 8.60141 38.2564C8.75187 38.2506 8.89918 38.2111 9.0317 38.141C9.11452 38.078 9.18119 37.9972 9.22661 37.9046C9.27204 37.812 9.29527 37.7103 9.29373 37.6076C9.30048 37.4983 9.28087 37.3887 9.23673 37.2881C9.19258 37.1874 9.12465 37.0985 9.03905 37.0281C9.0066 37.0045 8.97159 36.984 8.93516 36.967C8.80011 36.8306 8.67486 36.6857 8.55912 36.5332C9.37292 36.5374 10.1806 36.6714 10.9505 36.93C11.965 37.288 12.9452 37.7315 13.8816 38.2555C15.6316 39.3505 17.6554 39.954 19.7309 40C19.9588 40 20.1923 40 20.4352 39.9797C22.6497 39.7972 24.7975 39.1486 26.7332 38.0783C27.4393 37.7368 28.1079 37.412 28.8046 37.1554L28.9812 37.0871C29.7779 36.7516 30.6276 36.553 31.493 36.5001C31.4798 36.5112 31.4628 36.5203 31.4553 36.535C31.2944 36.7638 31.1095 36.9754 30.9037 37.1664C30.7797 37.2993 30.7131 37.4738 30.7161 37.6538C30.7078 37.7578 30.7248 37.8622 30.7658 37.9585C30.8067 38.0547 30.8703 38.14 30.9515 38.2075C31.0806 38.2836 31.2253 38.33 31.3753 38.3431C31.5254 38.3562 31.6768 38.3357 31.8176 38.2832C31.8759 38.2702 31.9358 38.2554 31.9923 38.248C32.2452 38.1979 32.5075 38.2237 32.7453 38.3219L33.284 38.6615L33.3447 37.7996C33.7512 37.919 34.1887 37.882 34.5685 37.6962C34.6616 37.6337 34.7392 37.5516 34.7955 37.4557C34.8519 37.3599 34.8854 37.2526 34.8939 37.1423C34.9977 35.9763 35.4355 34.8628 36.1572 33.9304L36.4284 33.6221L36.1195 33.3544ZM13.3364 33.0333V33.1883C13.2234 33.1367 13.1046 33.0906 12.9898 33.0407V32.5515H13.3382L13.3364 33.0333ZM12.7838 32.9558C12.4317 32.8118 12.0708 32.6715 11.698 32.5441H12.7838V32.9558ZM14.5923 33.1403H14.0857V31.8963H14.5923V33.1403ZM15.6818 33.338V34.2794L15.3334 34.1151V33.338H15.6818ZM15.3398 33.1403V31.8963H15.68V33.1403H15.3398ZM16.3447 33.1403H15.8915V31.8963H16.3447V33.1403ZM16.3447 33.338V33.7199V34.5802L15.8878 34.3716V33.338H16.3447ZM15.1302 33.1403H14.7836V31.8963H15.1302V33.1403ZM15.1302 33.338V34.0171L14.927 33.9211L14.7836 33.8529V33.338H15.1302ZM24.6415 33.338V34.4622C24.5248 34.5194 24.4079 34.5821 24.2931 34.6357V33.3434L24.6415 33.338ZM24.2931 33.1403V31.8963H24.6415V33.1403H24.2931ZM25.3945 33.7273V33.338H25.846V33.8067C25.6916 33.8971 25.5433 33.9784 25.3927 34.0633L25.3945 33.7273ZM25.3945 33.1403V31.8963H25.846V33.1403H25.3945ZM25.1877 33.1403H24.841V31.8963H25.1877V33.1403ZM25.1877 33.338V34.1796L24.8392 34.3641V33.338H25.1877ZM26.6311 33.0664V32.5441H26.9778V33.1367C26.8535 33.2013 26.7412 33.2659 26.6339 33.3213L26.6311 33.0664ZM27.1791 33.0444V32.5441H28.5674C28.0919 32.676 27.6286 32.8464 27.1819 33.0536L27.1791 33.0444ZM32.1697 27.5471C32.2431 27.5138 32.3223 27.4844 32.4032 27.4567V27.6413L32.1697 27.5471ZM32.8225 29.0239V30.4895C32.7065 30.5096 32.5927 30.5374 32.4805 30.5727V29.0958C32.5941 29.0686 32.7084 29.0471 32.8243 29.0314L32.8225 29.0239ZM32.4805 28.939V27.4326C32.5929 27.3983 32.7067 27.3708 32.8225 27.3497V28.856C32.707 28.8788 32.5937 28.9089 32.4823 28.9464L32.4805 28.939ZM32.4805 32.0513V30.759C32.4805 30.759 32.702 30.6964 32.8206 30.6743V32.1897C32.7077 32.1767 32.5934 32.1675 32.4805 32.1601C32.4842 32.0771 32.4823 32.0587 32.4823 32.0587L32.4805 32.0513ZM33.3649 28.9667V30.4323C33.2497 30.4351 33.1345 30.4438 33.0202 30.4582V28.9926C33.1352 28.9805 33.251 28.9743 33.3668 28.9741L33.3649 28.9667ZM33.0202 28.8263V27.3202C33.1344 27.3048 33.2497 27.2961 33.3649 27.2942V28.8006C33.2501 28.8051 33.1355 28.8161 33.022 28.8337L33.0202 28.8263ZM33.0202 31.8537V30.6373C33.0202 30.6373 33.2463 30.6151 33.3649 30.6114V31.8537V32.2636C33.2482 32.2433 33.1314 32.2229 33.0128 32.2063C33.0203 32.0734 33.022 31.8611 33.022 31.8611L33.0202 31.8537ZM33.9074 28.9926V30.4582C33.793 30.4439 33.6778 30.4352 33.5626 30.4323V28.9667C33.6831 28.9778 33.7961 28.9871 33.9166 29L33.9074 28.9926ZM33.5626 28.8081V27.3017H33.7299L33.9074 27.3202V28.8263C33.7936 28.8137 33.679 28.8077 33.5644 28.8081H33.5626ZM33.9074 30.6448V32.3855C33.7925 32.3578 33.6775 32.3281 33.5626 32.3041V30.6188C33.5626 30.6188 33.798 30.63 33.9166 30.6448H33.9074ZM34.0959 32.4353C34.0959 32.2359 34.0959 31.8021 34.0959 31.8021V30.6743C34.0959 30.6743 34.3287 30.7239 34.4379 30.759V32.5387C34.3343 32.5018 34.2199 32.4685 34.1051 32.4353H34.0959ZM34.4407 28.9464C34.3281 28.9123 34.2135 28.8845 34.0977 28.8633V27.3571C34.2135 27.3783 34.3281 27.4059 34.4407 27.44V28.9464ZM34.4407 29.1143V30.5801C34.3287 30.5442 34.2139 30.5163 34.0977 30.4969V29.0314C34.2168 29.0513 34.3345 29.0789 34.4498 29.1143H34.4407ZM34.5179 27.6469V27.4623C34.5989 27.49 34.6798 27.5213 34.7551 27.5545L34.5179 27.6469ZM34.5179 26.2237V26.0391C34.5986 26.0657 34.6777 26.0964 34.7551 26.1313L34.5179 26.2237ZM33.1902 24.2522C33.1902 24.1895 33.32 24.1894 33.3557 24.1894H33.5553C33.591 24.1894 33.7226 24.1895 33.7226 24.2522V24.4109C33.636 24.4109 33.5473 24.4016 33.4569 24.4016C33.3665 24.4016 33.2693 24.4016 33.1902 24.4109V24.2522ZM33.1902 24.5199C33.2769 24.5199 33.3665 24.5107 33.4569 24.5107C33.5473 24.5107 33.636 24.5107 33.7226 24.5199L34.7551 25.4817C34.3449 25.3117 33.9041 25.2241 33.4587 25.2241C33.0134 25.2241 32.5717 25.3117 32.1614 25.4817L33.1902 24.5199ZM32.1614 25.6274C32.5717 25.4575 33.0134 25.3699 33.4587 25.3699C33.9041 25.3699 34.3449 25.4575 34.7551 25.6274V25.9542C34.3445 25.7855 33.9039 25.6984 33.4587 25.6984C33.0136 25.6984 32.572 25.7855 32.1614 25.9542V25.6274ZM34.4407 26.0207V26.805C34.3284 26.77 34.2137 26.7424 34.0977 26.7221V25.9375C34.2166 25.9572 34.3342 25.9836 34.4498 26.0168L34.4407 26.0207ZM33.9 25.908V26.6906C33.7871 26.6777 33.6739 26.6686 33.5553 26.6649V25.8821C33.6833 25.8821 33.7961 25.8915 33.9166 25.9044L33.9 25.908ZM33.3576 25.8803V26.6649C33.239 26.6649 33.1239 26.6777 33.0128 26.6906V25.908C33.1295 25.892 33.2475 25.8816 33.3668 25.8767L33.3576 25.8803ZM32.8151 25.9375V26.7221C32.6991 26.742 32.5843 26.7696 32.4722 26.805V26.0207C32.5876 25.9842 32.7052 25.9544 32.8243 25.9319L32.8151 25.9375ZM32.1614 26.1369C32.2374 26.1025 32.3154 26.0721 32.395 26.0463V26.2311L32.1614 26.1369ZM32.1614 27.0599C32.5697 26.8851 33.0114 26.7976 33.4569 26.8032C33.9029 26.7987 34.3457 26.8862 34.7551 27.0599V27.3866C34.3447 27.2172 33.904 27.13 33.4587 27.13C33.0134 27.13 32.5718 27.2172 32.1614 27.3866V27.0599ZM31.2374 29.131V28.5126L32.0336 27.7244V28.6086C31.8046 28.9409 31.5376 29.2461 31.2374 29.5185V29.131ZM30.831 28.8725V29.8786C30.0272 30.5281 29.15 31.0855 28.2171 31.54C29.1633 31.2942 30.0516 30.869 30.831 30.2885V30.7942H31.2374V30.017C31.4878 29.8453 31.7531 29.6571 32.0336 29.4448V32.1363C31.1697 32.1096 30.3061 32.1794 29.4583 32.3447H26.0418V31.9258C27.7795 31.1342 29.3953 30.1063 30.8402 28.8725H30.831ZM26.0418 32.5533H26.4188V33.4617L26.0418 33.6924V32.5533ZM23.5796 30.8496H25.8386V31.7079H23.5796V30.8496ZM23.5796 31.9055H24.0844V33.1496H23.5796V31.9055ZM23.5796 33.3472H24.0844V34.7335C23.9168 34.8092 23.7453 34.8811 23.5778 34.9475V33.3472H23.5796ZM20.7037 11.864C21.0112 12.4871 21.4695 13.0271 22.0387 13.4368C21.5152 12.6907 21.087 11.8848 20.7625 11.037C20.7776 10.8081 20.8002 10.5349 20.8416 10.1695C20.8723 8.83382 21.181 7.51844 21.749 6.30405C21.7283 6.59756 21.7075 7.00357 21.7132 7.45214C21.7132 7.79179 21.7343 8.13146 21.7757 8.48958H21.9127V9.31656C21.9541 9.50115 22.0032 9.70416 22.0653 9.9146C22.2639 10.5225 22.5015 11.1177 22.777 11.6961C22.6022 11.1167 22.4643 10.5273 22.3632 9.93127C22.2766 9.31842 22.2575 8.8589 22.2575 8.8589V8.7904C22.5314 7.93536 22.9032 7.11375 23.3663 6.34101C24.2094 5.01044 25.3194 3.86181 26.6293 2.96481C28.4294 1.62465 28.3587 1.99001 28.3587 1.99001C27.9203 2.49745 27.5246 3.03964 27.1773 3.61085C23.9951 6.83387 24.2048 9.276 24.2048 9.276C24.6487 7.99742 25.3042 6.7993 26.1457 5.7299C26.4671 5.29624 26.8473 4.90753 27.2757 4.57438C28.0406 3.98682 28.9303 3.57552 29.8794 3.37086C30.099 3.32423 30.3209 3.28853 30.5442 3.26383C32.2671 3.01094 32.0906 3.27848 32.0906 3.27848C30.5328 3.78748 29.2024 4.8088 28.3247 6.1693C29.2346 5.61997 30.2696 5.30267 31.3367 5.24633H31.299C31.299 5.24633 33.8919 5.13374 33.4532 5.44755C33.4532 5.44755 28.0738 7.4209 27.5974 12.0801C26.1691 13.5911 25.1744 15.4456 24.7132 17.4554C24.7607 17.6509 24.8454 17.8355 24.9633 17.9998C24.7374 17.8448 24.4639 17.6399 24.1588 17.3851C24.4023 14.0203 25.4137 10.7522 27.1175 7.82146C25.5823 9.3409 24.4937 11.238 23.9658 13.3131C23.7599 13.9159 23.5863 14.529 23.4472 15.1498C23.2718 14.9327 23.0836 14.7262 22.8827 14.5315V16.1521C21.9792 15.1638 21.1808 14.0876 20.5005 12.9402C20.5943 12.5862 20.6659 12.2267 20.7138 11.864H20.7037ZM17.4425 27.6949C17.8191 27.3663 17.9871 27.3958 18.2507 26.9842C18.4747 26.6353 18.0775 25.9763 17.9721 25.609C17.8158 25.0552 17.2713 25.2397 17.0435 24.3426C17.2435 24.5025 17.4647 24.6354 17.7009 24.7376L17.6025 24.4275C17.4191 24.2945 17.2529 24.1407 17.106 23.9697L16.8173 23.4417L17.2559 23.6357L16.8513 22.8567C17.082 22.7258 17.3056 22.5833 17.5216 22.4302C16.5562 22.7253 15.5327 22.7885 14.5372 22.6147C14.9137 22.2843 15.2562 22.0242 15.5687 21.7713L15.8363 21.5552C15.9907 21.426 16.1417 21.2968 16.2923 21.1584C16.0325 21.3005 15.7993 21.4204 15.5715 21.5275C15.4077 21.6105 15.2453 21.6881 15.0814 21.7656C14.7595 21.917 14.4244 22.0685 14.0177 22.2512C13.8034 22.3622 13.5566 22.3973 13.3189 22.3508C12.408 22.2593 11.5123 22.0565 10.6526 21.7472C11.4714 21.808 12.2924 21.6591 13.0348 21.3152C13.2062 21.2414 13.3739 21.1639 13.5377 21.0827C13.8127 20.9442 14.0746 20.7928 14.3156 20.6415C14.3514 20.6175 13.6858 20.8003 13.1341 20.924C12.9684 20.9609 12.8162 20.9941 12.6919 21.0126C12.6166 21.0273 12.5241 21.0365 12.4243 21.0457C11.9163 21.1157 11.3996 21.0994 10.8972 20.9977C10.4503 20.7012 10.0373 20.3591 9.66425 19.9769C9.16998 19.4499 8.72822 18.8775 8.34581 18.2675C9.58612 18.8524 10.9276 19.2038 12.3002 19.3032C11.7911 18.8701 11.3667 18.3496 11.048 17.7673C11.6599 18.2474 12.3532 18.618 13.0964 18.862C13.6838 19.069 14.3141 19.1336 14.9325 19.0504C15.5509 18.9671 16.1394 18.7384 16.6481 18.3838L15.349 18.3489L13.8917 17.2006L13.7557 17.0936C14.0126 17.0321 14.273 16.9846 14.5353 16.9514C15.0989 16.9097 15.6659 16.9589 16.2132 17.0972C15.8197 16.8898 15.3971 16.7406 14.9592 16.6541C14.451 16.5495 13.9328 16.5012 13.4136 16.5102L12.999 16.4973L10.6885 14.6642L12.2947 14.8195H12.3039C11.739 14.3284 11.1005 13.7469 10.466 13.1581L10.0725 12.7887C11.4827 12.9033 12.8624 13.2548 14.151 13.828C12.7025 12.855 11.031 12.2483 9.28545 12.0616C8.61046 11.4069 7.8935 10.7956 7.1377 10.2321C7.86076 10.3373 9.83723 10.7453 9.87112 10.749C9.56311 10.4128 9.28105 10.055 9.02618 9.67845C8.84918 9.37571 8.6492 9.07102 8.49292 8.73136C8.46656 8.67968 8.44384 8.62446 8.41936 8.57092C7.60683 6.92118 7.26368 5.08691 7.42548 3.2618C7.42548 3.14551 7.44019 3.02928 7.44019 2.91298C7.44366 2.82668 7.46331 2.74169 7.49719 2.66196L7.51374 2.63605C7.72527 4.39271 8.45165 6.0516 9.60541 7.41157C9.24707 5.60822 9.42417 3.742 10.1157 2.0344C10.8463 0.122002 11.0572 0.323207 11.0572 0.323207C10.9476 1.52329 11.0468 2.73288 11.3495 3.90063C11.5705 4.78649 11.8915 5.64522 12.3076 6.46089C12.2906 5.90109 12.3348 5.34106 12.4381 4.79025C12.6428 3.69208 13.0586 2.64231 13.6637 1.69662C14.8669 -0.178856 14.6447 0.452324 14.6447 0.452324C14.1559 2.35896 14.1195 4.35028 14.539 6.27273C14.8244 7.32111 15.3211 8.30272 15.9999 9.15973C17.7398 11.1312 18.5326 10.9632 19.2933 11.8511L19.5139 12.1963C20.1514 13.5383 20.9848 14.782 21.9881 15.8882C23.0974 17.0218 24.3654 17.995 25.754 18.7788L25.7274 18.4336L25.7145 18.2121C26.2404 18.7106 26.7041 19.2683 27.0964 19.8735C27.1635 19.9726 27.2237 20.0764 27.2757 20.1838L27.3418 20.3147V20.287L27.3547 20.3276C27.5162 20.6417 27.6081 20.9861 27.6241 21.3375L27.6011 21.4058V21.4222L27.5561 21.5737L27.3979 22.0777C27.3979 22.0777 27.5091 22.7624 27.5506 23.0097C27.6692 23.713 26.827 24.0085 26.1604 23.763C26.2389 23.7443 26.3125 23.7077 26.3737 23.656C26.4349 23.6043 26.482 23.5391 26.5125 23.4658C26.0437 23.1705 25.8485 23.0615 25.6602 22.9119C25.5234 22.7738 25.4283 22.6013 25.3853 22.4135L25.2686 22.3675L24.8282 22.194L24.4098 22.0297C24.2646 22.0547 24.1269 22.1119 24.008 22.1974C23.8892 22.2829 23.7918 22.3943 23.7239 22.5226C23.6677 22.4077 23.6444 22.2802 23.655 22.1532C23.346 22.295 23.0768 22.5085 22.8707 22.7752C22.6647 23.0418 22.5273 23.3537 22.4717 23.6837C22.4717 23.6837 22.0463 23.2443 22.1913 22.9453C22.1612 23.0062 22.1367 23.0689 22.1141 23.1298L22.103 23.1686C22.0837 23.2198 22.0682 23.2721 22.0561 23.3254V23.3531C22.0429 23.4122 22.0297 23.4694 22.0203 23.5284V23.5397C22.009 23.6043 21.9993 23.6689 21.9936 23.7335L22.3136 24.5826C22.2041 24.536 22.099 24.4805 21.9991 24.4165C21.9991 24.4663 22.0091 24.5143 22.0148 24.5623V24.5974C22.0148 24.6454 22.0275 24.6914 22.0331 24.7376V24.7746L22.1141 24.7486L22.1352 24.7579L22.0331 24.7746L22.0488 24.8595C22.1034 25.1733 22.1744 25.4576 22.2271 25.6772C22.1255 25.6772 22.0015 25.6384 21.8998 25.6329C21.9972 26.0125 22.168 26.3703 22.4028 26.687C22.5138 26.8143 23.0898 27.2408 23.1953 27.3294C23.3358 27.5797 23.3765 27.8723 23.3093 28.1503C23.2421 28.4283 23.0722 28.6718 22.8321 28.8337C22.9369 28.5808 22.9718 28.3056 22.9342 28.0352C22.8965 27.7647 22.787 27.5086 22.617 27.2924C22.6678 27.4549 22.7637 28.1305 22.4285 28.3889C22.4737 27.7502 22.4284 27.5804 21.8824 27.2555C21.7212 27.1206 21.579 26.9661 21.4576 26.7958C21.069 26.5788 20.6254 26.474 20.1787 26.4932C20.9319 25.8656 21.3085 26.3917 21.3537 26.2699C21.3675 26.1724 21.3612 26.0732 21.3353 25.9781C21.3094 25.883 21.2644 25.7938 21.2029 25.716C21.0343 25.5748 20.8353 25.4727 20.6209 25.417C20.3309 25.211 20.0986 24.9367 19.9452 24.6195L20.6264 24.8041C20.6114 24.7653 20.2159 24.4348 20.1971 24.3942C20.1243 24.1979 20.0662 23.9969 20.0224 23.7925C19.8967 23.666 19.7554 23.5551 19.6022 23.4622C19.464 23.6538 19.3734 23.8742 19.3374 24.1062C19.3015 24.3382 19.3214 24.5755 19.3953 24.7987L19.525 25.3136C19.3928 25.3108 19.264 25.276 19.1489 25.2122C19.2017 25.4226 19.2863 25.7657 19.3485 26.0759C19.155 26.0676 18.9664 26.0139 18.7986 25.919C18.8438 26.1295 18.9697 26.5227 19.2804 26.5504C19.9155 26.5806 20.546 26.6708 21.1634 26.8199C21.3222 26.9483 21.4513 27.1084 21.5422 27.2895C21.6331 27.4706 21.6842 27.6685 21.6911 27.8702C21.1262 27.2315 21.0524 26.9842 19.9038 26.9085C20.5534 27.0931 20.7227 27.0764 21.0485 27.5951C20.7192 27.4016 20.3386 27.3088 19.9553 27.3285C19.5719 27.3482 19.2029 27.4797 18.8961 27.7059C18.7803 27.7411 18.6672 27.7824 18.5559 27.8296C18.3879 27.8349 18.2206 27.8558 18.0567 27.8923C17.928 27.9518 17.8131 28.0361 17.7183 28.1402C17.6236 28.2442 17.5509 28.3658 17.505 28.4978C17.4674 28.5328 17.4296 28.5679 17.3938 28.6048C17.289 28.4721 17.2368 28.3065 17.2476 28.139C17.2583 27.9715 17.3308 27.8137 17.4517 27.6949H17.4425ZM16.5369 31.1006C16.5363 30.2946 16.833 29.5157 17.3726 28.9076C17.4038 28.9194 17.4378 28.9237 17.471 28.9205C17.5181 28.9127 17.5614 28.8907 17.5951 28.8576C17.6289 28.8245 17.6515 28.7821 17.6595 28.7359C17.6792 28.6542 17.7186 28.5782 17.7744 28.5144C17.9894 28.3405 18.2254 28.1929 18.4768 28.075C18.6665 28.0872 18.8537 28.0308 19.0037 27.9164C19.04 27.8848 19.082 27.8602 19.1278 27.8443C19.3999 27.7769 19.6792 27.7424 19.9599 27.7411C20.8673 27.7411 21.7381 28.0943 22.3798 28.7233C23.0214 29.3523 23.3819 30.2054 23.3819 31.095V31.7043H22.7586C22.7952 31.5219 22.8137 31.3363 22.8146 31.1504C22.8146 30.4028 22.5117 29.6859 21.9725 29.1573C21.4332 28.6287 20.7022 28.3317 19.9396 28.3317C19.1771 28.3317 18.446 28.6287 17.9068 29.1573C17.3676 29.6859 17.0646 30.4028 17.0646 31.1504C17.0644 31.3364 17.083 31.522 17.1207 31.7043H16.5369V31.1006ZM20.745 28.8856C19.9496 29.1017 19.2589 29.5876 18.795 30.257C18.7873 30.2672 18.7769 30.2757 18.7655 30.2817C18.7542 30.2878 18.7417 30.2913 18.7288 30.2921C18.7052 30.2916 18.6823 30.283 18.6644 30.268C18.3983 30.0428 18.2028 29.7485 18.0999 29.4189C18.0962 29.4042 18.0965 29.3889 18.1008 29.3743C18.1051 29.3597 18.1136 29.3463 18.1247 29.3358C18.4631 29.0043 18.888 28.7708 19.3531 28.6607C19.8181 28.5506 20.3052 28.5684 20.7607 28.7121C20.7798 28.7176 20.7966 28.7289 20.8085 28.7445C20.8204 28.7601 20.8269 28.7793 20.8269 28.7988C20.8269 28.8183 20.8204 28.8373 20.8085 28.8529C20.7966 28.8685 20.7798 28.88 20.7607 28.8856H20.745ZM21.3371 28.9962C21.3547 28.9971 21.3715 29.003 21.3859 29.0129C21.7256 29.2342 22.0075 29.5308 22.2088 29.8786C22.2164 29.8911 22.221 29.9053 22.2216 29.9199C22.2223 29.9344 22.219 29.9487 22.2124 29.9618C22.2059 29.9748 22.1961 29.9861 22.1839 29.9944C22.1718 30.0028 22.1573 30.0081 22.1426 30.0098C21.3466 30.1272 20.6185 30.5154 20.0849 31.1062C20.0761 31.1157 20.0647 31.1232 20.0527 31.1283C20.0407 31.1334 20.0281 31.136 20.015 31.1358C20.0014 31.1386 19.9873 31.1386 19.9737 31.1358C19.6101 30.9632 19.2653 30.7553 18.9439 30.5154C18.9259 30.5009 18.914 30.4803 18.9108 30.4577C18.9077 30.4351 18.9131 30.4122 18.9264 30.3935C19.2877 29.8844 19.7816 29.4792 20.3561 29.2195C20.6657 29.0743 21.0033 28.9964 21.3463 28.9908L21.3371 28.9962ZM18.5348 30.4084C18.9589 30.7802 19.4373 31.0876 19.9543 31.3203C19.9656 31.326 19.9757 31.3338 19.9838 31.3433C19.9919 31.3528 19.9976 31.3639 20.0012 31.3757C20.103 31.7248 20.1498 32.087 20.1392 32.4499C20.1389 32.4628 20.1358 32.4754 20.13 32.4869C20.1241 32.4984 20.1154 32.5085 20.1051 32.5164C20.0885 32.529 20.0683 32.5356 20.0472 32.5349H20.0297C19.6115 32.4586 19.2084 32.3185 18.8345 32.1196C18.2086 31.7953 17.711 31.2756 17.4204 30.6427C17.414 30.6242 17.414 30.604 17.4204 30.5855C17.4962 30.2547 17.6357 29.9414 17.8323 29.6625C17.8415 29.6491 17.8542 29.6385 17.8691 29.6317C17.884 29.6248 17.9005 29.622 17.9169 29.6238C17.9329 29.6257 17.9482 29.6317 17.9611 29.6411C17.9739 29.6505 17.984 29.663 17.9905 29.6774C18.1249 29.9523 18.3129 30.1987 18.544 30.4028L18.5348 30.4084ZM17.4168 31.1578C17.436 31.1515 17.4565 31.1516 17.4756 31.1583C17.4947 31.165 17.5108 31.1779 17.5216 31.1948C17.8553 31.6751 18.3095 32.0634 18.84 32.3226C19.2132 32.5093 19.6121 32.6418 20.0242 32.7158C20.0487 32.7206 20.0707 32.7345 20.0849 32.7546C20.0981 32.7741 20.1025 32.7981 20.0978 32.821C20.0435 33.1205 19.9096 33.4005 19.7098 33.6332C19.7014 33.6427 19.6911 33.6505 19.6794 33.6559C19.6678 33.6613 19.6547 33.6644 19.6417 33.6647H19.6307C19.1786 33.6109 18.7495 33.441 18.3858 33.1723C18.0221 32.9036 17.7366 32.5457 17.5593 32.1344C17.4372 31.8543 17.3684 31.5546 17.3561 31.2502C17.354 31.2285 17.3599 31.2066 17.3726 31.1887C17.3854 31.1708 17.4044 31.1578 17.426 31.1522L17.4168 31.1578ZM20.0077 33.5428C20.1218 33.3675 20.2049 33.1748 20.2541 32.9725C20.3126 32.7382 20.3386 32.4972 20.3313 32.2561C20.3232 31.9434 20.273 31.6331 20.1824 31.3332C20.178 31.3189 20.1772 31.3038 20.1805 31.2892C20.1838 31.2747 20.1915 31.2613 20.2017 31.2502C20.5129 30.8992 20.8977 30.6187 21.3307 30.4287C21.3424 30.4234 21.3556 30.4205 21.3684 30.4203C21.3813 30.4202 21.3934 30.4229 21.4052 30.428C21.4169 30.4331 21.4279 30.4405 21.4364 30.4498C21.445 30.4592 21.4519 30.4703 21.4558 30.4823C21.582 30.8708 21.6448 31.2763 21.6433 31.684C21.6437 32.0017 21.5884 32.317 21.4797 32.6162C21.3536 32.9514 21.1494 33.2529 20.883 33.4966C20.8741 33.5045 20.8637 33.5107 20.8526 33.5151C20.6048 33.6084 20.3435 33.6632 20.0785 33.6775C20.0627 33.6775 20.0472 33.6737 20.0334 33.6663C20.0196 33.6589 20.0079 33.6482 19.9994 33.6352C19.9919 33.6191 19.9899 33.601 19.993 33.5836C19.996 33.5661 20.0044 33.5499 20.0169 33.5372L20.0077 33.5428ZM21.5698 32.8986C21.6497 32.734 21.713 32.5622 21.7582 32.3855C21.8265 32.0995 21.8537 31.8056 21.8391 31.5123C21.8214 31.1359 21.7532 30.7636 21.636 30.4048C21.6269 30.3829 21.6269 30.3584 21.636 30.3365C21.6412 30.326 21.649 30.3164 21.658 30.3088C21.6671 30.3012 21.6769 30.2955 21.6884 30.2921C21.8807 30.2334 22.0788 30.1914 22.2786 30.1666C22.2993 30.1645 22.3198 30.169 22.3375 30.1797C22.3552 30.1904 22.3687 30.2066 22.3761 30.2256C22.6091 30.8248 22.6029 31.4881 22.3577 32.0826C22.2153 32.431 21.994 32.7433 21.7113 32.9964C21.7035 33.0042 21.6941 33.0105 21.6838 33.0146C21.6734 33.0187 21.6628 33.0208 21.6516 33.0205C21.6321 33.0207 21.6124 33.0149 21.5964 33.0038C21.5816 32.9897 21.5719 32.9713 21.5688 32.9513C21.5658 32.9313 21.5699 32.9107 21.5799 32.8929L21.5698 32.8986ZM16.5369 31.9109H17.1694C17.3392 32.503 17.7019 33.0245 18.2019 33.3959C18.702 33.7673 19.3123 33.9685 19.9396 33.9685C20.567 33.9685 21.1773 33.7673 21.6773 33.3959C22.1774 33.0245 22.5401 32.503 22.7098 31.9109H23.3819V35.0289C22.406 35.4003 21.369 35.5935 20.3221 35.5992H20.2973C18.9934 35.5542 17.7137 35.2396 16.5424 34.6762V31.9073L16.5369 31.9109ZM14.0774 30.855H16.3374V31.7135H14.0774V30.855ZM14.5748 33.3526V33.7717C14.411 33.6924 14.245 33.6129 14.0774 33.5354V33.3508L14.5748 33.3526ZM13.8761 33.2179V33.4432L13.5304 33.2843V32.559H13.8761V33.2179ZM7.9808 28.4184V27.7206L8.77702 28.5108V29.5167C8.47719 29.244 8.21025 28.9388 7.9808 28.6068V28.4184ZM7.9808 29.441C8.26137 29.6533 8.52658 29.8417 8.77702 30.0134V30.7906H9.18432V30.2865C9.96356 30.8658 10.8502 31.2903 11.7955 31.5362C10.863 31.082 9.98727 30.5248 9.18432 29.875V28.8707C10.6011 30.0788 12.1793 31.0912 13.8761 31.8796V32.3411C13.8761 32.3411 11.8768 32.3503 11.0351 32.3411C10.0365 32.1008 9.00192 32.0383 7.9808 32.1565V29.4392V29.441ZM5.91856 29.0296V30.4951C5.80263 30.5156 5.68883 30.5434 5.57653 30.5783V29.1014C5.69516 29.0811 5.81004 29.0535 5.92867 29.0314L5.91856 29.0296ZM5.57653 28.9446V27.4382C5.6891 27.4043 5.80284 27.3765 5.91856 27.3551V28.8615C5.80578 28.883 5.69493 28.9114 5.58573 28.9464L5.57653 28.9446ZM6.46101 28.9723V30.4379C6.34427 30.4379 6.23013 30.449 6.11715 30.4638V28.998C6.23464 28.984 6.35278 28.9761 6.47112 28.9741L6.46101 28.9723ZM6.11715 28.8319V27.3256C6.23139 27.3103 6.34573 27.3019 6.46101 27.2999V28.806C6.34885 28.8091 6.23745 28.8184 6.12634 28.8337L6.11715 28.8319ZM6.11715 31.7744V30.6427C6.11715 30.6427 6.34055 30.6207 6.45917 30.617V31.7744V32.4204L6.10887 32.5072L6.11715 31.7744ZM7.54224 29.1125V30.5783C7.43025 30.5424 7.31546 30.5145 7.1993 30.4951V29.0296C7.31975 29.05 7.43858 29.0781 7.55511 29.1143L7.54224 29.1125ZM7.1993 28.8615V27.3551C7.31511 27.3761 7.42979 27.4039 7.54224 27.4382V28.9446C7.4334 28.9115 7.32226 28.8843 7.21033 28.8633L7.1993 28.8615ZM7.54408 30.7572V31.7246V32.2192C7.42922 32.2358 7.31412 32.2525 7.20114 32.2728V30.6723C7.20114 30.6723 7.4459 30.7313 7.55511 30.759L7.54408 30.7572ZM7.61947 27.6451V27.4603C7.70232 27.488 7.78136 27.5195 7.85668 27.5527L7.61947 27.6451ZM7.00163 28.8319C6.88801 28.8167 6.77334 28.808 6.65869 28.806V27.2999H6.82694L7.00163 27.3184V28.8319ZM7.00163 28.998V30.4638C6.88791 30.4495 6.77329 30.4408 6.65869 30.4379V28.9723C6.78484 28.9779 6.90157 28.9871 7.01266 29L7.00163 28.998ZM7.00163 30.6427V32.3041L6.65869 32.3742V30.6132C6.65869 30.6132 6.90157 30.63 7.01266 30.6448L7.00163 30.6427ZM7.61947 26.2126V26.0279C7.70029 26.0542 7.77946 26.0851 7.85668 26.1203L7.61947 26.2126ZM6.29184 24.2412C6.29184 24.1784 6.4234 24.1783 6.45917 24.1783H6.65869C6.69258 24.1783 6.8251 24.1784 6.8251 24.2412V24.3998C6.73848 24.3998 6.64977 24.3906 6.55939 24.3906C6.46901 24.3906 6.37092 24.3906 6.29184 24.3998V24.2412ZM6.29184 24.5087C6.37845 24.5087 6.46717 24.4994 6.55755 24.4994C6.64793 24.4994 6.74601 24.4994 6.8251 24.5087L7.85484 25.4704C7.44492 25.3005 7.00443 25.2131 6.55939 25.2131C6.11435 25.2131 5.67385 25.3005 5.26393 25.4704L6.29184 24.5087ZM5.26393 25.6164C5.67385 25.4465 6.11435 25.3588 6.55939 25.3588C7.00443 25.3588 7.44492 25.4465 7.85484 25.6164V25.9431C7.44463 25.7744 7.00425 25.6874 6.55939 25.6874C6.11452 25.6874 5.67414 25.7744 5.26393 25.9431V25.6164ZM7.5404 26.0094V26.794C7.42823 26.7587 7.31349 26.7309 7.19746 26.7109V25.9265C7.31846 25.9495 7.43782 25.9796 7.55511 26.0168L7.5404 26.0094ZM6.99979 25.8969V26.6795C6.88869 26.6666 6.77171 26.6573 6.65685 26.6536V25.871C6.78489 25.8821 6.90157 25.8915 7.01266 25.9044L6.99979 25.8969ZM6.45733 25.8692V26.6536C6.34059 26.6536 6.22553 26.6666 6.11255 26.6795V25.8969C6.23432 25.8883 6.35438 25.8816 6.47112 25.8767L6.45733 25.8692ZM5.91488 25.9265V26.7109C5.79895 26.7313 5.68516 26.7591 5.57286 26.794V26.0094C5.68987 25.9769 5.80862 25.951 5.92867 25.9319L5.91488 25.9265ZM5.26393 26.1259C5.3393 26.0914 5.41672 26.0611 5.49563 26.0353V26.2199L5.26393 26.1259ZM5.26393 27.0489C5.67157 26.874 6.11263 26.7864 6.55755 26.7922C7.00359 26.7874 7.44558 26.8749 7.85484 27.0489V27.3756C7.44479 27.2062 7.00435 27.1189 6.55939 27.1189C6.11443 27.1189 5.67398 27.2062 5.26393 27.3756V27.0489ZM5.26393 27.5453C5.33737 27.512 5.41466 27.4826 5.49563 27.4549V27.6395L5.26393 27.5453ZM5.57286 31.9404V30.748C5.57286 30.748 5.79625 30.6852 5.91488 30.663V32.5515C5.79813 32.5848 5.68202 32.6161 5.57469 32.6493L5.57286 31.9404ZM36.0046 33.7476C35.2527 34.7152 34.7963 35.8717 34.6871 37.0833C34.6818 37.1626 34.6582 37.2397 34.6181 37.3088C34.578 37.3779 34.5223 37.4372 34.4554 37.4821C34.1067 37.6311 33.7149 37.6514 33.3521 37.5393L33.1636 37.4931L33.1093 38.2444L32.8868 38.104C32.6009 37.9746 32.2807 37.938 31.972 37.999C31.9118 38.0083 31.8494 38.0228 31.7835 38.0358C31.6747 38.0793 31.5571 38.0991 31.4397 38.0937C31.3223 38.0882 31.2073 38.0578 31.1032 38.0044C31.0508 37.9583 31.0101 37.9012 30.9837 37.8372C30.9572 37.7733 30.9466 37.7042 30.9515 37.6353C30.9503 37.5654 30.9645 37.4959 30.9938 37.4321C31.0231 37.3683 31.0665 37.3116 31.1206 37.266L31.1409 37.2496V37.2383L31.1602 37.2272C31.511 36.9835 31.7868 36.6503 31.9582 36.2637C30.9103 36.247 29.8717 36.4524 28.9122 36.8656L28.7366 36.9321C28.038 37.1905 27.364 37.5154 26.6541 37.855C24.7451 38.9129 22.6259 39.5539 20.4407 39.7341C20.2035 39.747 19.9751 39.7544 19.7548 39.7544C17.7136 39.7069 15.7253 39.1118 14.0048 38.034C13.0578 37.5041 12.0652 37.0564 11.0388 36.6957C10.101 36.3784 9.10868 36.2473 8.11872 36.3099C8.35272 36.649 8.63657 36.9519 8.96182 37.2088V37.2198C9.00696 37.2662 9.04243 37.321 9.06571 37.3809C9.08899 37.4408 9.10011 37.5048 9.09789 37.5689C9.09999 37.639 9.08496 37.7086 9.0556 37.7726C9.02625 37.8365 8.98271 37.893 8.9278 37.938C8.82116 37.987 8.70543 38.0125 8.58762 38.0125C8.46981 38.0125 8.35316 37.987 8.24652 37.938C8.18249 37.9213 8.12017 37.9047 8.05803 37.8918C7.75325 37.8175 7.43268 37.8396 7.14138 37.9546L6.91152 38.0858L6.89222 37.3325L6.69086 37.3694C6.32414 37.464 5.93482 37.4254 5.59492 37.2606C5.53047 37.2124 5.47791 37.1504 5.44138 37.0794C5.40485 37.0085 5.38566 36.9302 5.38438 36.8507C5.35538 35.6757 4.90651 34.5481 4.11558 33.6647L3.95469 33.5115L4.15696 33.4155C6.32497 32.4133 8.76417 32.1219 11.1142 32.5847L12.3039 32.9871C13.1908 33.3323 14.0172 33.7257 14.8231 34.1151C15.629 34.5046 16.398 34.8664 17.1851 35.1636L17.403 35.2614L17.505 35.2835C18.3965 35.6123 19.3394 35.7872 20.2918 35.8004H20.3184C22.623 35.651 24.8368 34.8663 26.7065 33.5372C26.9316 33.4058 27.1658 33.2899 27.4071 33.1901L27.5129 33.1422C28.86 32.5626 30.325 32.2956 31.7946 32.3616C33.2642 32.4275 34.6987 32.8248 35.9862 33.5225L36.1259 33.6221L36.0046 33.7476Z" fill="#90949C"/>
<path d="M26.8787 32.762C24.9557 34.1123 22.6876 34.9118 20.3278 35.0712H20.2993C18.3198 34.9354 16.4 34.3474 14.6936 33.3544C13.6118 32.8071 12.4943 32.3311 11.3479 31.9294C9.05448 31.3851 6.64085 31.6107 4.49365 32.57C5.1939 33.4329 5.6102 34.4842 5.68613 35.5843C6.5347 35.1903 7.45475 34.9679 8.39289 34.9302C9.33104 34.8924 10.2679 35.0401 11.1465 35.3646C12.1887 35.7326 13.1968 36.1879 14.1595 36.7252C16.0204 37.9078 18.2119 38.4889 20.4271 38.3866C22.5711 38.2136 24.6513 37.5836 26.521 36.5406C27.2083 36.1914 27.9135 35.8772 28.6338 35.5992L28.803 35.5345C29.6812 35.1042 30.6545 34.8957 31.6357 34.9279C32.6169 34.9602 33.5747 35.2321 34.4215 35.7191C34.5705 34.61 34.9971 33.5543 35.6627 32.6457C34.2986 31.9657 32.7862 31.6209 31.256 31.6412C29.7258 31.6614 28.2236 32.0461 26.8787 32.762ZM7.44038 34.379C7.30851 34.4104 7.17177 34.4133 7.03859 34.3878C6.90542 34.3623 6.77915 34.3091 6.66899 34.2314C6.55883 34.1537 6.46754 34.0535 6.40052 33.9378C6.3335 33.8221 6.29264 33.6938 6.281 33.5613C6.24395 33.4312 6.23576 33.2949 6.25709 33.1615C6.27842 33.0281 6.32833 32.9006 6.4042 32.7879C6.48007 32.6752 6.57984 32.5797 6.69657 32.508C6.8133 32.4364 6.94434 32.3901 7.08089 32.3724C7.25457 32.3348 7.43468 32.34 7.60587 32.3873L7.62518 32.906C7.49936 32.8368 7.35294 32.8113 7.21052 32.8339C6.93938 32.8856 6.8008 33.1181 6.86482 33.4504C6.86807 33.5174 6.88521 33.5831 6.91631 33.6428C6.94741 33.7026 6.99159 33.7551 7.04503 33.797C7.09847 33.8389 7.15985 33.8693 7.22615 33.886C7.29245 33.9026 7.36194 33.905 7.42935 33.8934C7.57149 33.8619 7.70225 33.7922 7.80631 33.6922L7.9718 34.1444C7.81742 34.2646 7.6345 34.3453 7.44038 34.379ZM9.30127 34.32L8.96937 33.6665H8.87926L8.84157 34.2774L8.25038 34.2425L8.37083 32.271L9.1413 32.317C9.65911 32.3483 9.94084 32.5903 9.91636 33.013C9.91661 33.1315 9.88136 33.2475 9.81431 33.3461C9.74726 33.4447 9.65199 33.5213 9.54032 33.5667L9.94487 34.2738L9.30127 34.32ZM11.1162 33.9506L10.9277 34.6318L10.3494 34.4768L10.5379 33.8087L10.1995 32.4517L10.8339 32.5385L10.9976 33.3693L11.5529 32.751L12.1515 32.9114L11.1162 33.9506ZM12.7472 33.9748C13.1069 34.2867 13.2173 34.5045 13.0893 34.8017C13.0536 34.8886 12.9992 34.9667 12.9293 35.0304C12.8594 35.0942 12.7756 35.1421 12.6847 35.1708C12.5938 35.1995 12.4981 35.2083 12.4034 35.1965C12.3086 35.1847 12.2174 35.1526 12.1368 35.1026C11.8942 35.002 11.6763 34.8522 11.4968 34.6632L11.7699 34.2571C11.9199 34.4405 12.1087 34.5899 12.3234 34.6947C12.4307 34.7408 12.5119 34.7333 12.5514 34.6539C12.5909 34.5745 12.5508 34.523 12.3399 34.3292C12.0198 34.0394 11.9018 33.8454 12.0411 33.5279C12.0772 33.4471 12.1296 33.3748 12.1965 33.3159C12.2634 33.2569 12.3424 33.2127 12.4282 33.1861C12.514 33.1595 12.6046 33.1512 12.6939 33.1617C12.7832 33.1723 12.8699 33.2015 12.9468 33.2474C13.1646 33.3283 13.3583 33.4608 13.5113 33.6331L13.2382 34.0356C13.1182 33.8797 12.9624 33.7534 12.784 33.6665C12.6729 33.6203 12.596 33.6351 12.5772 33.6978C12.5583 33.7606 12.5665 33.8104 12.7472 33.9673V33.9748ZM13.8938 35.9241L13.3623 35.6508L14.0666 34.3328L13.5885 34.0874L13.8202 33.6573L15.2545 34.3957L15.0963 34.8626L14.598 34.6079L13.8938 35.9241ZM16.0893 36.9595L15.5073 36.775L15.5634 36.4059L14.9989 36.1272L14.758 36.38L14.2422 36.1251L15.7712 34.6614L16.3679 34.955L16.0893 36.9595ZM17.5953 37.5245L16.4074 37.1554L17.0271 35.2799L17.5916 35.4644L17.1283 36.8692L17.6707 37.0409L17.5953 37.5245ZM19.4296 37.1554H19.3376L19.3165 37.746L18.7216 37.7275L18.7896 35.7524L19.4856 35.7763C20.0053 35.7929 20.3162 36.0236 20.3012 36.4796C20.2861 36.9355 19.9345 37.1571 19.4185 37.1405L19.4296 37.1554ZM21.798 37.6076L21.6343 37.2734L21.0054 37.3584L20.953 37.6998L20.3876 37.7773L20.8022 35.7191L21.4651 35.6305L22.391 37.4359L21.798 37.6076ZM22.8001 37.3805L22.2053 35.494L22.7698 35.3205L23.2139 36.7306L23.7582 36.5663L23.9862 37.0186L22.8001 37.3805ZM25.54 36.3818L25.2871 36.1087L24.7088 36.3633L24.7585 36.7049L24.2307 36.9393L24.0312 34.8515L24.6417 34.582L26.0521 36.0589L25.54 36.3818ZM27.0671 35.6582C26.9482 35.7225 26.8164 35.7607 26.681 35.7705C26.5456 35.7802 26.4091 35.761 26.282 35.7143C26.1548 35.6677 26.0393 35.5947 25.9436 35.5003C25.8479 35.4058 25.7742 35.2922 25.7275 35.1672C25.657 35.0512 25.6129 34.9216 25.5979 34.7873C25.5829 34.653 25.5979 34.517 25.6411 34.3887C25.6843 34.2604 25.7553 34.1428 25.8489 34.0437C25.9425 33.9446 26.0564 33.8662 26.1836 33.8141C26.3423 33.7351 26.5177 33.6941 26.6957 33.6942L26.8502 34.1888C26.7112 34.1544 26.5641 34.1675 26.4337 34.2258C26.334 34.3056 26.2654 34.4163 26.2387 34.5397C26.212 34.663 26.2295 34.7917 26.2875 34.9043C26.3454 35.0168 26.4407 35.1065 26.5578 35.1587C26.6749 35.2109 26.8064 35.2223 26.9311 35.1911C27.0596 35.124 27.1671 35.0238 27.2418 34.9013L27.5222 35.2945C27.4004 35.4458 27.2424 35.5655 27.0625 35.6434L27.0671 35.6582ZM27.7843 35.2891L27.0313 33.4614L28.2587 32.9686L28.438 33.3952L27.7484 33.6701L27.8578 33.9322L28.3791 33.7255L28.6219 34.1187L28.0325 34.3549L28.1548 34.6467L28.8664 34.3605L29.0439 34.7869L27.7843 35.2891ZM30.3715 34.3993L29.7914 34.5192L29.3767 32.5865L30.6234 32.3318L30.7236 32.8008L30.0589 32.9373L30.1251 33.2492L30.605 33.1514L30.7935 33.6018L30.2281 33.7163L30.3715 34.3993ZM31.2073 34.2738C31.1511 34.2784 31.0947 34.2665 31.0454 34.2397C30.9962 34.213 30.9562 34.1724 30.9305 34.1232C30.9048 34.0741 30.8946 34.0186 30.9011 33.9637C30.9076 33.9089 30.9308 33.8572 30.9673 33.8152C31.0038 33.7732 31.0519 33.7428 31.1061 33.7278C31.1603 33.7128 31.2181 33.7139 31.2716 33.7309C31.3252 33.748 31.3729 33.7804 31.4077 33.8238C31.4425 33.8672 31.4632 33.9197 31.4675 33.9748C31.4676 34.0451 31.4401 34.1128 31.3911 34.1643C31.3422 34.2157 31.2752 34.247 31.2036 34.2517L31.2073 34.2738ZM33.4837 33.9968C33.5397 33.9926 33.5957 34.0048 33.6446 34.0318C33.6936 34.0587 33.7332 34.0994 33.7586 34.1485C33.7841 34.1976 33.7947 34.2529 33.7881 34.3076C33.7815 34.3622 33.7583 34.4137 33.7219 34.4556C33.6854 34.4975 33.6371 34.528 33.583 34.543C33.529 34.5581 33.4719 34.557 33.4185 34.5401C33.365 34.5232 33.3173 34.4911 33.2824 34.448C33.2475 34.4048 33.2263 34.3525 33.2217 34.2977C33.2156 34.2596 33.2183 34.2209 33.2281 34.1836C33.238 34.1464 33.2554 34.1116 33.2796 34.0813C33.3038 34.051 33.3343 34.026 33.3688 34.0077C33.4033 33.9893 33.441 33.9781 33.4801 33.9748L33.4837 33.9968ZM31.6008 33.2235C31.6041 33.0886 31.6372 32.9558 31.6973 32.8343C31.7574 32.7129 31.8432 32.6056 31.9492 32.5195C32.0553 32.4334 32.1786 32.3707 32.3115 32.3354C32.4444 32.3002 32.5839 32.2932 32.7197 32.3152C32.8969 32.3306 33.0672 32.3869 33.218 32.4794L33.081 32.9797C32.9815 32.8767 32.8478 32.8114 32.7041 32.7951C32.4292 32.7674 32.2259 32.9502 32.1901 33.2861C32.173 33.3516 32.1707 33.42 32.1828 33.4865C32.1948 33.553 32.2209 33.616 32.26 33.6717C32.2991 33.7273 32.3499 33.7741 32.4089 33.8089C32.468 33.8437 32.5345 33.8655 32.6029 33.8731C32.7487 33.8823 32.8937 33.8529 33.024 33.7882L33.047 34.2681C32.8621 34.3388 32.6619 34.3631 32.465 34.3384C32.3262 34.3314 32.1912 34.2941 32.0688 34.2296C31.9463 34.1651 31.8397 34.0749 31.7571 33.9653C31.6744 33.8557 31.6176 33.7294 31.5907 33.5957C31.5637 33.4621 31.5669 33.3241 31.6008 33.1919V33.2235Z" fill="#90949C"/>
<path d="M19.4329 36.1843H19.3593L19.3428 36.7141H19.4081C19.6076 36.7141 19.7187 36.6382 19.7243 36.4518C19.73 36.2654 19.6306 36.1917 19.4329 36.1843Z" fill="#90949C"/>
<path d="M24.6361 35.8924L24.9744 35.743L24.5469 35.2463L24.6361 35.8924Z" fill="#90949C"/>
<path d="M15.6522 35.9459L15.7763 35.3091L15.3203 35.7816L15.6522 35.9459Z" fill="#90949C"/>
<path d="M21.0679 36.8835L21.4347 36.8337L21.169 36.2393L21.0679 36.8835Z" fill="#90949C"/>
<path d="M9.05008 32.7322H8.92964L8.89746 33.2601H9.02066C9.059 33.2679 9.09853 33.2669 9.13651 33.2577C9.17449 33.2484 9.20931 33.231 9.23948 33.2065C9.26965 33.1821 9.29384 33.1512 9.31028 33.1164C9.32672 33.0816 9.33562 33.0437 9.3351 33.0053C9.34452 32.8428 9.24968 32.7451 9.05008 32.7322Z" fill="#90949C"/>
</svg>
