<svg width="24" height="24" viewBox="0 0 24 24" fill="none" xmlns="http://www.w3.org/2000/svg">
<g clip-path="url(#clip0_1_9047)">
<path d="M15.0547 3.97336C14.577 4.47104 14.577 5.27499 15.0547 5.77267L19.8076 10.724L1.22496 10.724C0.551233 10.724 1.34599e-06 11.2982 1.4687e-06 12.0001C1.59142e-06 12.702 0.551233 13.2762 1.22496 13.2762L19.8198 13.2762L15.067 18.2275C14.5893 18.7252 14.5893 19.5291 15.067 20.0268C15.5447 20.5245 16.3165 20.5245 16.7942 20.0268L23.6417 12.8934C24.1194 12.3957 24.1194 11.5917 23.6417 11.0941L16.7819 3.97336C16.3164 3.47567 15.5325 3.47567 15.0547 3.97336Z" fill="#90949C"/>
</g>
<defs>
<clipPath id="clip0_1_9047">
<rect width="24" height="24" fill="white" transform="translate(24 24) rotate(180)"/>
</clipPath>
</defs>
</svg>
